<?xml version="1.0" standalone="no"?>
<!DOCTYPE svg PUBLIC "-//W3C//DTD SVG 20010904//EN"
 "http://www.w3.org/TR/2001/REC-SVG-20010904/DTD/svg10.dtd">
<svg version="1.0" xmlns="http://www.w3.org/2000/svg"
 width="200.000000pt" height="200.000000pt" viewBox="0 0 200.000000 200.000000"
 preserveAspectRatio="xMidYMid meet">

<g transform="translate(0.000000,200.000000) scale(0.100000,-0.100000)"
fill="#000000" stroke="none">
<path d="M607 1483 c-4 -3 -7 -24 -7 -45 0 -34 3 -38 25 -38 l26 0 -3 -127
c-3 -120 -4 -128 -23 -128 -16 0 -21 -8 -23 -42 l-3 -43 150 0 151 0 0 65 0
65 -39 0 c-33 0 -40 -4 -43 -22 -3 -20 -9 -23 -43 -23 l-40 0 -3 128 c-2 122
-2 127 18 127 17 0 20 6 20 45 l0 45 -78 0 c-43 0 -82 -3 -85 -7z m106 -43
c-23 -9 -23 -13 -23 -169 l0 -160 88 -4 c75 -2 71 -3 -28 -4 -63 0 -105 2 -92
4 22 4 22 6 22 168 0 162 0 164 -22 168 -13 2 0 5 27 5 39 1 45 -1 28 -8z
m157 -304 c0 -3 -4 -8 -10 -11 -5 -3 -10 -1 -10 4 0 6 5 11 10 11 6 0 10 -2
10 -4z"/>
<path d="M1020 1446 c0 -40 3 -46 20 -46 20 0 20 -5 18 -127 -3 -115 -5 -128
-20 -127 -15 2 -18 -6 -18 -42 l0 -44 120 0 c131 0 162 9 199 56 25 32 29 109
7 140 -13 18 -12 26 1 67 14 43 14 49 -3 83 -34 68 -59 79 -200 83 l-124 3 0
-46z m271 -25 c16 -16 29 -39 29 -51 0 -28 -27 -80 -42 -80 -7 0 0 -12 14 -27
36 -38 43 -74 24 -112 -24 -45 -44 -51 -158 -50 -57 1 -93 4 -80 6 22 4 22 6
22 168 0 162 0 164 -22 168 -13 2 23 5 80 6 102 1 104 1 133 -28z"/>
<path d="M1110 1365 l0 -75 79 0 c74 0 81 2 100 26 24 30 26 43 10 77 -16 34
-49 47 -124 47 l-65 0 0 -75z m148 23 c34 -34 1 -68 -67 -68 l-41 0 0 40 0 40
48 0 c26 0 53 -5 60 -12z"/>
<path d="M1110 1195 l0 -85 79 0 c76 0 80 1 105 31 29 34 31 47 14 84 -17 38
-58 55 -133 55 l-65 0 0 -85z m154 29 c39 -39 8 -77 -65 -80 l-49 -3 0 50 0
49 49 0 c32 0 55 -6 65 -16z"/>
<path d="M950 1270 c0 -133 4 -210 10 -210 6 0 10 77 10 210 0 133 -4 210 -10
210 -6 0 -10 -77 -10 -210z"/>
<path d="M100 956 c0 -8 5 -18 10 -21 6 -3 10 -24 10 -46 0 -21 -4 -39 -10
-39 -5 0 -10 -7 -10 -15 0 -11 12 -15 50 -15 47 0 50 2 50 25 0 25 -14 33 -25
15 -3 -5 -11 -10 -17 -10 -7 0 -9 20 -5 60 l5 60 -29 0 c-19 0 -29 -5 -29 -14z"/>
<path d="M225 895 c0 -71 1 -75 22 -75 24 0 43 22 25 28 -7 2 -12 23 -12 47 0
24 5 45 12 47 18 6 -1 28 -25 28 -21 0 -22 -4 -22 -75z"/>
<path d="M290 945 c0 -27 9 -32 27 -14 6 6 18 9 27 7 13 -2 10 -12 -19 -55
-19 -29 -35 -55 -35 -58 0 -3 27 -5 60 -5 57 0 60 1 60 25 0 25 -14 33 -25 15
-3 -5 -15 -10 -26 -10 -18 0 -16 6 16 55 19 31 35 58 35 60 0 3 -27 5 -60 5
-57 0 -60 -1 -60 -25z"/>
<path d="M435 895 l0 -75 48 0 c40 0 47 3 47 19 0 23 -22 40 -28 23 -5 -17
-32 -15 -32 3 0 8 7 15 15 15 8 0 15 7 15 15 0 8 -7 15 -15 15 -8 0 -15 7 -15
15 0 18 26 20 33 3 3 -10 7 -10 17 -1 24 22 3 43 -42 43 l-43 0 0 -75z"/>
<path d="M540 945 c0 -26 24 -35 34 -12 3 6 4 -16 2 -50 l-4 -63 29 0 c19 0
29 5 29 15 0 8 -4 15 -10 15 -5 0 -10 20 -10 45 0 42 13 60 23 33 3 -10 7 -10
17 -1 27 25 3 43 -55 43 -52 0 -55 -1 -55 -25z"/>
<path d="M675 895 l0 -75 28 0 c27 0 38 22 17 35 -18 11 -10 25 15 25 25 0 33
-14 15 -25 -21 -13 -10 -35 18 -35 l27 0 0 75 0 75 -27 0 c-28 0 -39 -22 -18
-35 18 -11 10 -25 -15 -25 -25 0 -33 14 -15 25 21 13 10 35 -17 35 l-28 0 0
-75z"/>
<path d="M895 895 l0 -75 41 0 c52 0 62 12 62 77 1 60 -12 73 -70 73 l-33 0 0
-75z m75 30 c0 -8 -9 -15 -20 -15 -11 0 -20 7 -20 15 0 8 9 15 20 15 11 0 20
-7 20 -15z m0 -60 c0 -8 -9 -15 -20 -15 -11 0 -20 7 -20 15 0 8 9 15 20 15 11
0 20 -7 20 -15z"/>
<path d="M1065 958 c-2 -7 -13 -38 -25 -68 -25 -69 -25 -70 6 -70 20 0 25 4
22 22 -2 17 2 23 17 23 15 0 19 -6 17 -23 -3 -19 1 -22 27 -22 21 0 31 5 31
15 0 8 -4 15 -8 15 -5 0 -16 27 -25 60 -14 48 -21 60 -37 60 -12 0 -23 -6 -25
-12z m35 -60 c0 -5 -4 -8 -10 -8 -5 0 -10 10 -10 23 0 18 2 19 10 7 5 -8 10
-18 10 -22z"/>
<path d="M1170 956 c0 -8 5 -18 10 -21 6 -3 10 -21 10 -40 0 -19 -4 -37 -10
-40 -22 -14 -10 -35 20 -35 31 0 39 17 18 38 -9 9 -7 12 10 12 19 0 21 -4 16
-25 -6 -23 -3 -25 25 -25 34 0 39 14 15 41 -12 13 -13 22 -5 37 22 41 -11 72
-73 72 -25 0 -36 -5 -36 -14z m86 -27 c9 -15 -11 -33 -30 -26 -9 4 -13 13 -10
22 7 17 30 20 40 4z"/>
<path d="M1314 958 c-4 -6 -2 -14 4 -16 7 -2 12 -23 12 -47 0 -24 -5 -45 -12
-47 -20 -7 2 -28 29 -28 22 0 24 3 19 25 -5 18 -2 25 9 25 9 0 15 -9 15 -25 0
-20 5 -25 25 -25 29 0 31 11 9 44 -10 16 -12 26 -5 31 17 10 13 40 -7 58 -21
20 -87 23 -98 5z m81 -38 c0 -8 -8 -16 -17 -18 -13 -2 -18 3 -18 18 0 15 5 20
18 18 9 -2 17 -10 17 -18z"/>
<path d="M1465 895 l0 -75 48 0 c40 0 47 3 47 19 0 23 -22 40 -28 23 -5 -17
-32 -15 -32 3 0 8 7 15 15 15 8 0 15 7 15 15 0 8 -7 15 -15 15 -8 0 -15 7 -15
15 0 8 7 15 15 15 8 0 15 -4 15 -10 0 -5 7 -10 15 -10 9 0 15 9 15 25 0 23 -3
25 -47 25 l-48 0 0 -75z"/>
<path d="M1570 945 c0 -26 24 -35 34 -12 3 6 4 -16 2 -50 l-4 -63 29 0 c19 0
29 5 29 15 0 8 -4 15 -10 15 -13 0 -13 77 -1 84 5 4 11 0 14 -6 3 -10 7 -10
17 -1 27 25 3 43 -55 43 -52 0 -55 -1 -55 -25z"/>
<path d="M1717 952 c-22 -24 -22 -95 -1 -116 21 -22 67 -20 87 2 23 26 22 94
-1 115 -24 22 -65 21 -85 -1z m68 -57 c0 -36 -2 -40 -25 -40 -20 0 -26 6 -28
28 -5 42 5 59 30 55 20 -3 23 -9 23 -43z"/>
</g>
</svg>
